<svg xmlns="http://www.w3.org/2000/svg" viewBox="0 0 96.48 21.26"><path fill="#14b8a6" d="M5.04 17.52c-.94 0-1.74-.1-2.4-.31q-.99-.315-1.56-1.02c-.38-.47-.66-1.11-.83-1.92S0 12.46 0 11.26c0-1.55.17-2.79.5-3.71.34-.92.9-1.58 1.69-1.97s1.85-.59 3.18-.59 2.3.11 3.02.32c.72.22 1.23.59 1.52 1.13.3.54.44 1.28.44 2.24 0 .82-.1 1.48-.29 1.98s-.54.89-1.06 1.16-1.24.46-2.18.56-2.18.16-3.72.16h-.72v-1.75h3.36c.75 0 1.26-.09 1.54-.28.27-.18.41-.53.41-1.04V7.29H5.03c-.74 0-1.24.09-1.51.26s-.41.52-.41 1.03v6.43c.32.08.66.14 1.03.18s.82.06 1.34.06c.66 0 1.3-.05 1.94-.14.64-.1 1.38-.25 2.23-.46l.38 2.11c-.66.24-1.42.42-2.29.55s-1.78.19-2.72.19ZM17.81 13.78c-1.22 0-2.19-.14-2.92-.43s-1.25-.75-1.57-1.39-.48-1.51-.48-2.62.16-1.96.48-2.6c.32-.65.84-1.12 1.57-1.4.73-.29 1.7-.43 2.92-.43s2.21.14 2.93.43 1.24.75 1.56 1.39.48 1.51.48 2.62-.16 1.96-.47 2.62-.83 1.12-1.56 1.4q-1.095.42-2.94.42Zm5.11 4.32c0 .75-.16 1.36-.49 1.84-.33.47-.85.81-1.57 1.02s-1.68.31-2.88.31c-.9 0-1.77-.06-2.63-.19s-1.62-.31-2.29-.55l.36-2.16c.8.21 1.51.36 2.12.46.62.1 1.24.14 1.88.14.59 0 1.11-.02 1.55-.06s.88-.1 1.31-.18v-1.56c-1.6-.11-2.74-.25-3.42-.41s-1.02-.38-1.02-.67l.77-2.74 1.9.02-.14 1.85c.94.13 1.72.26 2.32.38s1.06.3 1.38.5c.32.21.54.47.67.79s.19.72.19 1.2Zm-7.2-6.12h2.64c.58 0 .98-.1 1.2-.29s.34-.54.34-1.03V6.68h-2.64c-.58 0-.98.1-1.2.29s-.34.54-.34 1.03zm6.12-4.4-1.66-2.09 2.14-1.63 1.44 1.42zM36.26 5.26v12h-1.42l-.77-1.2c-.66.5-1.37.86-2.14 1.1s-1.63.36-2.59.36c-1.12 0-1.94-.22-2.47-.66s-.79-1.13-.79-2.08V5.26h2.95v10.1h2.47c.69 0 1.16-.09 1.42-.26.26-.18.38-.5.38-.96V5.26h2.95ZM44.04 17.52c-.88 0-1.62-.1-2.21-.3s-1.06-.54-1.4-1.01-.59-1.11-.74-1.92-.23-1.82-.23-3.04.08-2.23.23-3.04.4-1.45.74-1.92.81-.81 1.4-1.01 1.33-.3 2.21-.3c.45 0 .92.02 1.4.05.49.03.96.08 1.4.16.45.07.82.16 1.13.25l-.31 2.16c-.53-.13-1.04-.22-1.55-.28s-1.03-.08-1.57-.08c-.74 0-1.25.14-1.54.43s-.43.8-.43 1.54v5.81q.75.24 2.16.24c.53 0 1.04-.05 1.52-.14.49-.1 1.05-.25 1.69-.46l.29 2.11c-.58.24-1.23.42-1.96.55s-1.48.19-2.24.19ZM50.97 17.26V1.54l2.88-.24v4.68c.51-.35 1.08-.6 1.7-.76.62-.15 1.34-.23 2.14-.23 1.12 0 1.98.19 2.57.56.59.38.89.92.89 1.64v10.06H58.2V7.42h-2.33c-.75 0-1.26.09-1.54.28-.27.18-.41.52-.41 1.02v8.54zM64.89 5.52v11.74h2.96V5.11z"/><path fill="#ef4444" d="M68.09 1.73c0 .65-.12 1.1-.35 1.33s-.69.35-1.36.35-1.13-.12-1.37-.35-.36-.68-.36-1.33.12-1.13.36-1.37.7-.36 1.37-.36 1.11.12 1.35.36.36.7.36 1.37M70.87 15.55c0-.64.12-1.11.35-1.4.23-.3.72-.44 1.48-.44s1.22.15 1.44.44c.22.3.34.76.34 1.4 0 .67-.12 1.15-.35 1.43s-.72.42-1.45.42-1.22-.14-1.45-.42-.35-.76-.35-1.43Z"/><path fill="#14b8a6" d="M81.43 17.52c-.88 0-1.62-.1-2.21-.3s-1.06-.54-1.4-1.01-.59-1.11-.74-1.92-.23-1.82-.23-3.04.08-2.23.23-3.04.4-1.45.74-1.92.81-.81 1.4-1.01 1.33-.3 2.21-.3c.45 0 .92.02 1.4.05.49.03.96.08 1.4.16.45.07.82.16 1.13.25l-.31 2.16c-.53-.13-1.04-.22-1.55-.28s-1.03-.08-1.57-.08c-.74 0-1.25.14-1.54.43s-.43.8-.43 1.54v5.81q.75.24 2.16.24c.53 0 1.04-.05 1.52-.14.49-.1 1.05-.25 1.69-.46l.29 2.11c-.58.24-1.23.42-1.96.55s-1.48.19-2.24.19ZM92.28 17.52c-.88 0-1.62-.1-2.21-.3s-1.06-.54-1.4-1.01-.59-1.11-.74-1.92-.23-1.82-.23-3.04.08-2.23.23-3.04.4-1.45.74-1.92.81-.81 1.4-1.01 1.33-.3 2.21-.3c.45 0 .92.02 1.4.05.49.03.96.08 1.4.16.45.07.82.16 1.13.25L95.9 7.6c-.53-.13-1.04-.22-1.55-.28s-1.03-.08-1.57-.08c-.74 0-1.25.14-1.54.43s-.43.8-.43 1.54v5.81q.75.24 2.16.24c.53 0 1.04-.05 1.52-.14.49-.1 1.05-.25 1.69-.46l.29 2.11c-.58.24-1.23.42-1.96.55s-1.48.19-2.24.19Z"/></svg>