<svg version="1.1" viewBox="0 0 105.83 105.83" xmlns="http://www.w3.org/2000/svg" xmlns:xlink="http://www.w3.org/1999/xlink"><g transform="matrix(.26458 0 0 .26458 -222.25 0)" fill="#fff"><path transform="matrix(1.3333 0 0 -1.3333 1137 303.14)" d="m0 0c-16.181-17.258-38.166-22.935-64.779-25.627-53.887-5.449-100.57 18.616-106.22 78.744-2.403 25.562 3.286 49.862 14.756 69.775l-6.678 26.262c-1.078 4.565 3.123 8.907 7.572 7.827l23.069-5.6c13.718 11.264 30.312 18.625 48.616 20.476 15.657 1.583 30.837-1.043 44.638-7.031l21.684 13.118c4.081 2.468 9.248-0.322 9.638-5.205l1.25-30.935v-1e-3c16.676-17.605 28.031-41.649 30.598-68.952 1.45-15.422-0.15-27.219-4.238-38.474-1.914-5.268-2.49-9.723 0.97-14.132 3.342-4.26 8.643-12.531 14.554-11.145 8.884 2.083 18.398 1.528 24.278-2.144 11.181 20.995 17.526 44.956 17.526 70.403 0 82.842-67.157 150-150 150s-150-67.158-150-150c0-82.843 67.157-150 150-150 42.48 0 80.831 17.663 108.12 46.04-4.787 0.718-9.683 2.577-14.334 5.677-8.931 5.954-16.857 11.579-21.02 20.924"/><path transform="matrix(1.3333 0 0 -1.3333 1118.6 156.51)" d="m0 0 14.009 1.717-0.198 2.524-14.373-1.761c-0.617 1.815-1.313 3.59-2.082 5.324l15.832 5.052-0.497 3.169-16.839-5.832c-11.295 23.68-35.716 38.057-63.365 35.261-27.605-2.791-49.463-22.668-56.17-48.105l-16.47 2.494-0.176-3.236 16.217-1.758c-0.44-1.871-0.803-2.98-1.075-4.903l-14.149-1.129 0.129-2.531 13.79 1.101c-0.243-2.141-0.388-3.518-0.415-5.707l-12.598-5.151 0.618-3.123 11.997 5.614c0.028-1.673 0.1-2.565 0.259-4.258 3.334-35.464 32.956-42.476 68.347-38.897 35.39 3.579 63.147 16.393 59.813 51.857-0.161 1.702-0.405 2.586-0.691 4.241l12.995-2.822 0.303 2.862-13.631 2.588c-0.428 2.109-0.956 3.388-1.58 5.409"/></g></svg>
